<svg width="120" height="120" viewBox="0 0 120 120" fill="none" xmlns="http://www.w3.org/2000/svg">
  <!-- Background circle -->
  <circle cx="60" cy="60" r="55" fill="#E8F4FD"/>
  
  <!-- Phone body -->
  <rect x="30" y="20" width="45" height="75" rx="8" fill="#fff" stroke="#1565C0" stroke-width="2"/>
  
  <!-- Phone screen -->
  <rect x="35" y="28" width="35" height="55" rx="3" fill="#E3F2FD"/>
  
  <!-- Phone icon on screen -->
  <rect x="40" y="35" width="25" height="25" rx="6" fill="#1565C0"/>
  <path d="M52.5 42c3.5 0 6.5 3 6.5 6.5s-3 6.5-6.5 6.5-6.5-3-6.5-6.5 3-6.5 6.5-6.5z" fill="none" stroke="#fff" stroke-width="2"/>
  <path d="M48 52l-2 2" stroke="#fff" stroke-width="2" stroke-linecap="round"/>
  
  <!-- Lines on screen -->
  <rect x="40" y="65" width="25" height="4" rx="2" fill="#BBDEFB"/>
  <rect x="40" y="73" width="18" height="4" rx="2" fill="#BBDEFB"/>
  
  <!-- Diamond -->
  <g transform="translate(65, 55)">
    <path d="M0 15L15 0L30 15L15 35L0 15Z" fill="#1E88E5"/>
    <path d="M0 15L15 0L15 35L0 15Z" fill="#1565C0"/>
    <path d="M15 0L30 15L15 35L15 0Z" fill="#42A5F5"/>
    <path d="M5 15L15 5L25 15L15 25L5 15Z" fill="#64B5F6"/>
  </g>
  
  <!-- Sparkles -->
  <path d="M100 45l2-5 2 5 5 2-5 2-2 5-2-5-5-2 5-2z" fill="#1E88E5"/>
  <path d="M95 65l1-3 1 3 3 1-3 1-1 3-1-3-3-1 3-1z" fill="#64B5F6"/>
</svg>
