<svg xmlns="http://www.w3.org/2000/svg" viewBox="0 0 512 512" width="16" height="16">
  <path fill="#a4d96c" d="M256 48C141.1 48 48 141.1 48 256c0 30.3 6.5 59.1 18.2 85.1l-36.5 36.5c-5.1 5.1-5.1 13.4 0 18.5l17 17c5.1 5.1 13.4 5.1 18.5 0l36.5-36.5C127.9 393.5 190.1 416 256 416"/>
  <path fill="#7cc576" d="M256 48v368c65.9 0 128.1-22.5 154.3-39.4l36.5 36.5c5.1 5.1 13.4 5.1 18.5 0l17-17c5.1-5.1 5.1-13.4 0-18.5l-36.5-36.5C457.5 347.1 464 318.3 464 288c0-114.9-93.1-208-208-240"/>
  <path fill="#e8e8e8" d="M256 160c-53 0-96 43-96 96s43 96 96 96"/>
  <path fill="#c5c5c5" d="M256 160v192c53 0 96-43 96-96s-43-96-96-96"/>
  <circle cx="256" cy="256" r="40" fill="#fff"/>
  <path fill="#a4d96c" d="M80 200l-32-48 48-32"/>
  <path fill="#3e9e5b" d="M432 312l32 48-48 32"/>
</svg>


